<svg width="26" height="32" viewBox="0 0 26 32" fill="none" xmlns="http://www.w3.org/2000/svg">
<mask id="mask0_778_187" style="mask-type:luminance" maskUnits="userSpaceOnUse" x="0" y="0" width="26" height="32">
<path fill-rule="evenodd" clip-rule="evenodd" d="M16.7933 23.6708C17.2975 25.19 17.3873 27.6826 16.7502 29.028C14.7425 33.2675 6.40013 27.537 4.34613 25.6073C3.62176 24.926 1.83457 23.3215 1.54884 22.1722C1.06271 20.2151 4.87854 21.3754 6.12366 21.7017C11.8603 23.2052 10.7822 23.039 16.7933 23.6708ZM25.8882 0.607172C23.6406 -0.0837998 18.6847 -0.402127 16.5369 0.852648C11.746 3.54893 16.5228 11.4607 18.539 15.3305C19.4151 17.0118 21.7254 21.8647 18.1615 22.0868C17.8919 21.6361 17.4726 19.9709 17.2359 19.2698C16.0399 15.7393 10.6108 3.72963 8.83523 1.46113C8.42958 1.55329 5.22302 2.74044 4.70228 2.96017C4.95984 4.13285 15.7128 17.9559 16.4609 22.2466C14.2412 22.1228 12.0393 21.7781 9.88799 21.2176C7.5217 20.8804 -1.89595 17.3744 0.340749 22.7678C1.07277 24.5324 2.47363 25.7131 3.51994 26.7659C5.2021 28.4561 9.50407 31.3536 12.9493 31.8989C15.5502 32.3094 17.2013 31.4518 18.0324 29.659C18.9579 27.6609 18.4992 25.6222 18.3253 23.4459C24.8169 21.8047 20.3572 15.0596 17.9358 10.8756C11.903 0.452636 19.6501 3.90549 24.5944 4.7848L25.8882 0.60797V0.607172Z" fill="white"/>
</mask>
<g mask="url(#mask0_778_187)">
<mask id="mask1_778_187" style="mask-type:luminance" maskUnits="userSpaceOnUse" x="-9" y="-6" width="44" height="44">
<path d="M-8.42578 37.3316H34.2398V-5.33398H-8.42578V37.3316Z" fill="white"/>
</mask>
<g mask="url(#mask1_778_187)">
<path d="M-0.533203 -0.534668H26.4227V32.5313H-0.533203V-0.534668Z" fill="black"/>
</g>
</g>
</svg>
